<svg width="50" height="50" viewBox="0 0 50 50" fill="none" xmlns="http://www.w3.org/2000/svg">
<g clip-path="url(#clip0_30_158)">
<path d="M1.87318 15.4876C2.70443 13.4688 3.80026 11.5667 5.12526 9.83132C5.47734 9.3709 6.12943 9.28757 6.58568 9.63549C7.04401 9.98549 7.12943 10.6376 6.78151 11.0959C5.56484 12.6855 4.56276 14.4313 3.79818 16.2792C3.63359 16.6813 3.24401 16.9251 2.83568 16.9251C2.70443 16.9251 2.56901 16.9001 2.43984 16.8459C1.90651 16.6292 1.65234 16.0188 1.87318 15.4876ZM2.28151 28.0397C2.14818 27.0376 2.07943 26.0147 2.08151 25.0001C2.08151 24.0209 2.14401 23.0334 2.26901 22.0605C2.34193 21.4897 1.93776 20.9688 1.36693 20.8938C0.802344 20.8105 0.27526 21.2251 0.20026 21.7959C0.0669271 22.8563 -0.00390625 23.9334 -0.00390625 24.998C-0.00390625 26.1022 0.0669271 27.2188 0.21276 28.3167C0.283594 28.8397 0.73151 29.2209 1.24401 29.2209C1.28984 29.2209 1.33776 29.2209 1.38359 29.2126C1.95234 29.1355 2.35443 28.6126 2.27943 28.0417L2.28151 28.0397ZM21.8773 2.28549C21.9211 2.28549 24.0044 2.0834 25.0003 2.0834C25.9961 2.0834 28.0794 2.28549 28.1232 2.28549C28.6378 2.28549 29.0857 1.90215 29.1544 1.37715C29.2273 0.806319 28.8253 0.285486 28.2544 0.208403C27.1773 0.0709025 26.0815 -0.00201416 25.0003 -0.00201416C23.919 -0.00201416 22.8211 0.0688192 21.744 0.208403C21.1753 0.283403 20.7711 0.804236 20.844 1.37715C20.9128 1.90215 21.3607 2.28549 21.8753 2.28549H21.8773ZM33.769 3.8209C35.6169 4.58757 37.3607 5.5959 38.9461 6.81465C39.1357 6.9584 39.3586 7.03132 39.5815 7.03132C39.8919 7.03132 40.2024 6.89174 40.4065 6.62507C40.7565 6.16882 40.6711 5.51465 40.2148 5.16465C38.4836 3.8334 36.5815 2.73549 34.5648 1.90007C34.0378 1.67924 33.4253 1.93132 33.2044 2.46465C32.9857 2.9959 33.2378 3.60632 33.769 3.82507V3.8209ZM3.84193 33.8147C3.62109 33.2813 3.00651 33.0417 2.47943 33.2522C1.94818 33.473 1.69818 34.0834 1.91693 34.6147C2.75443 36.6251 3.85859 38.5209 5.19401 40.2542C5.39818 40.5188 5.70651 40.6584 6.01901 40.6584C6.24193 40.6584 6.46693 40.5876 6.65651 40.4417C7.11276 40.0917 7.19609 39.4376 6.84401 38.9813C5.61901 37.3938 4.61068 35.6542 3.84401 33.8147H3.84193ZM10.3648 7.0709C10.5878 7.0709 10.8128 7.00007 11.0023 6.85424C12.5878 5.62715 14.3273 4.61674 16.1669 3.8459C16.6982 3.62507 16.9482 3.01674 16.7273 2.48549C16.5065 1.95215 15.894 1.7084 15.3669 1.92507C13.3544 2.76465 11.4586 3.86882 9.72943 5.20632C9.27318 5.5584 9.18984 6.21257 9.54193 6.66674C9.74818 6.9334 10.0523 7.0709 10.3648 7.0709ZM16.2628 46.1938C14.4169 45.4313 12.6732 44.4272 11.0857 43.2084C10.6315 42.8542 9.97318 42.9417 9.62526 43.4001C9.27526 43.8584 9.36068 44.5105 9.81693 44.8605C11.5523 46.1917 13.4544 47.2876 15.4711 48.1167C15.6003 48.1709 15.7357 48.1959 15.8669 48.1959C16.2753 48.1959 16.6648 47.9542 16.8294 47.5501C17.0482 47.0188 16.7961 46.4084 16.2648 46.1917L16.2628 46.1938ZM47.5482 33.1917C47.0149 32.9688 46.4086 33.2251 46.1878 33.7563C45.4253 35.6022 44.4169 37.3438 43.1982 38.9334C42.8482 39.3917 42.9336 40.0438 43.3898 40.3938C43.5794 40.5397 43.8023 40.6105 44.0253 40.6105C44.3357 40.6105 44.6482 40.4709 44.8503 40.2042C46.1836 38.4667 47.2794 36.5667 48.1107 34.5542C48.3294 34.0209 48.0774 33.4126 47.5461 33.1938L47.5482 33.1917ZM48.6211 20.8251C48.0503 20.9001 47.6482 21.423 47.7211 21.9938C47.8503 22.9792 47.9169 23.9897 47.919 25.0001C47.919 25.998 47.8544 27.0022 47.7273 27.9772C47.6544 28.548 48.0565 29.0688 48.6273 29.1459C48.6711 29.1522 48.719 29.1542 48.7628 29.1542C49.2773 29.1542 49.7253 28.7709 49.794 28.2459C49.9315 27.1813 50.0023 26.0897 50.0023 24.998C50.0023 23.898 49.9294 22.7938 49.7878 21.7251C49.7128 21.1542 49.1815 20.7438 48.6211 20.8251ZM28.0253 47.7167C26.0461 47.9792 24.0128 47.9813 22.0419 47.7272C21.4753 47.6522 20.9503 48.0542 20.8753 48.6292C20.8023 49.198 21.2044 49.7209 21.7773 49.7959C22.8398 49.9313 23.9232 50.0022 25.0023 50.0022C26.1003 50.0022 27.2107 49.9292 28.2982 49.7855C28.8669 49.7105 29.2711 49.1855 29.1961 48.6147C29.119 48.0438 28.5794 47.6438 28.0253 47.7167ZM38.9711 43.1667C37.3815 44.3917 35.6419 45.398 33.8023 46.1626C33.269 46.3834 33.019 46.9917 33.2378 47.523C33.4044 47.923 33.7919 48.1667 34.2003 48.1667C34.3336 48.1667 34.469 48.1417 34.5982 48.0876C36.6086 47.2542 38.5065 46.1522 40.2398 44.8188C40.6961 44.4667 40.7815 43.8147 40.4315 43.3584C40.0794 42.9001 39.4253 42.8188 38.9711 43.1667ZM28.069 31.2542L49.6878 10.1188C50.0982 9.71674 50.1065 9.05632 49.7044 8.6459C49.3065 8.23549 48.644 8.23132 48.2315 8.62924L26.6086 29.7667C24.569 31.7563 21.3732 31.7626 19.3169 29.7563L10.0857 21.1147C9.66484 20.723 9.00443 20.7397 8.61276 21.1626C8.22109 21.5813 8.24193 22.2417 8.66068 22.6355L17.8773 31.2647C19.3044 32.6563 21.1336 33.3522 22.9648 33.3522C24.7961 33.3522 26.6357 32.6522 28.0628 31.2563L28.069 31.2542Z" fill="#D7522C"/>
</g>
<defs>
<clipPath id="clip0_30_158">
<rect width="50" height="50" fill="white"/>
</clipPath>
</defs>
</svg>
