<svg width="50" height="50" viewBox="0 0 50 50" fill="none" xmlns="http://www.w3.org/2000/svg">
<path d="M48.2937 20.1125C47.2583 19.1729 45.9125 18.6896 44.525 18.7563C43.1292 18.8208 41.8417 19.425 40.9021 20.4583L33.1271 29.0063C32.4729 26.6979 30.3458 25 27.8312 25H7.29167C3.27083 25 0 28.2708 0 32.2917V42.7083C0 46.7292 3.27083 50 7.29167 50H19.7188C25.3562 50 30.7437 47.5854 34.4958 43.375L48.675 27.4583C50.5708 25.3292 50.4021 22.0333 48.2937 20.1125ZM47.1208 26.0708L32.9417 41.9875C29.5833 45.7563 24.7646 47.9167 19.7188 47.9167H7.29167C4.42083 47.9167 2.08333 45.5813 2.08333 42.7083V32.2917C2.08333 29.4188 4.42083 27.0833 7.29167 27.0833H27.8292C29.7146 27.0833 31.25 28.6188 31.25 30.5063C31.25 32.1979 29.9875 33.6542 28.3354 33.8896L15.5 35.425C14.9292 35.4917 14.5208 36.0104 14.5896 36.5833C14.6583 37.1542 15.1604 37.5771 15.7479 37.4938L28.6042 35.9563C30.7333 35.6521 32.45 34.1271 33.075 32.1563L42.4396 21.8667C43.0062 21.2438 43.7812 20.8792 44.6208 20.8417C45.4521 20.8 46.2667 21.0938 46.8875 21.6583C48.1542 22.8167 48.2583 24.7979 47.1167 26.0771L47.1208 26.0708ZM18.7521 20.8313C23.3479 20.8313 27.0854 17.2188 27.0854 12.7792C27.0854 9.59793 24.4 6.30834 21.8833 3.47292C20.2937 1.68334 17.2104 1.68334 15.6208 3.47292C13.1042 6.30626 10.4187 9.59584 10.4187 12.7792C10.4187 17.2188 14.1562 20.8313 18.7521 20.8313ZM17.1771 4.85626C17.5833 4.40001 18.1417 4.14793 18.7521 4.14793C19.3625 4.14793 19.9208 4.40001 20.325 4.85626C21.9604 6.69584 25.0021 10.1208 25.0021 12.7792C25.0021 16.0708 22.1979 18.7479 18.7521 18.7479C15.3063 18.7479 12.5021 16.0708 12.5021 12.7792C12.5021 10.1229 15.5437 6.69584 17.1771 4.85626Z" fill="#D7522C"/>
</svg>
