<svg width="50" height="50" viewBox="0 0 50 50" fill="none" xmlns="http://www.w3.org/2000/svg">
<path d="M15.6247 16.6667C11.6038 16.6667 8.33301 19.9375 8.33301 23.9583C8.33301 27.9792 11.6038 31.25 15.6247 31.25C19.6455 31.25 22.9163 27.9792 22.9163 23.9583C22.9163 19.9375 19.6455 16.6667 15.6247 16.6667ZM15.6247 29.1667C12.7518 29.1667 10.4163 26.8292 10.4163 23.9583C10.4163 21.0875 12.7518 18.75 15.6247 18.75C18.4976 18.75 20.833 21.0875 20.833 23.9583C20.833 26.8292 18.4976 29.1667 15.6247 29.1667ZM34.3747 33.3333C30.3538 33.3333 27.083 36.6042 27.083 40.625C27.083 44.6458 30.3538 47.9167 34.3747 47.9167C38.3955 47.9167 41.6663 44.6458 41.6663 40.625C41.6663 36.6042 38.3955 33.3333 34.3747 33.3333ZM34.3747 45.8333C31.5018 45.8333 29.1663 43.4958 29.1663 40.625C29.1663 37.7542 31.5018 35.4167 34.3747 35.4167C37.2476 35.4167 39.583 37.7542 39.583 40.625C39.583 43.4958 37.2476 45.8333 34.3747 45.8333ZM34.3747 14.5833C38.3955 14.5833 41.6663 11.3125 41.6663 7.29167C41.6663 3.27083 38.3955 0 34.3747 0C30.3538 0 27.083 3.27083 27.083 7.29167C27.083 11.3125 30.3538 14.5833 34.3747 14.5833ZM34.3747 2.08333C37.2476 2.08333 39.583 4.42083 39.583 7.29167C39.583 10.1625 37.2476 12.5 34.3747 12.5C31.5018 12.5 29.1663 10.1625 29.1663 7.29167C29.1663 4.42083 31.5018 2.08333 34.3747 2.08333ZM15.6247 0C11.6038 0 8.33301 3.27083 8.33301 7.29167C8.33301 11.3125 11.6038 14.5833 15.6247 14.5833C19.6455 14.5833 22.9163 11.3125 22.9163 7.29167C22.9163 3.27083 19.6455 0 15.6247 0ZM15.6247 2.08333C15.8205 2.08333 16.0122 2.09583 16.2018 2.11667L10.4497 7.86875C10.4288 7.67917 10.4163 7.4875 10.4163 7.29167C10.4163 4.42083 12.7518 2.08333 15.6247 2.08333ZM11.2122 10.0521L18.3872 2.87708C19.0538 3.29583 19.6205 3.8625 20.0393 4.52917L12.8643 11.7042C12.1976 11.2854 11.6309 10.7188 11.2122 10.0521ZM15.6247 12.5C15.4288 12.5 15.2372 12.4875 15.0476 12.4667L20.7997 6.71458C20.8205 6.90417 20.833 7.09583 20.833 7.29167C20.833 10.1625 18.4976 12.5 15.6247 12.5ZM34.3747 16.6667C30.3538 16.6667 27.083 19.9375 27.083 23.9583C27.083 27.9792 30.3538 31.25 34.3747 31.25C38.3955 31.25 41.6663 27.9792 41.6663 23.9583C41.6663 19.9375 38.3955 16.6667 34.3747 16.6667ZM34.3747 18.75C34.5705 18.75 34.7622 18.7625 34.9518 18.7833L29.1997 24.5354C29.1788 24.3458 29.1663 24.1542 29.1663 23.9583C29.1663 21.0875 31.5018 18.75 34.3747 18.75ZM29.9622 26.7188L37.1372 19.5438C37.8038 19.9625 38.3705 20.5292 38.7893 21.1958L31.6143 28.3708C30.9476 27.9521 30.3809 27.3854 29.9622 26.7188ZM34.3747 29.1667C34.1788 29.1667 33.9872 29.1542 33.7976 29.1333L39.5497 23.3813C39.5705 23.5708 39.583 23.7625 39.583 23.9583C39.583 26.8292 37.2476 29.1667 34.3747 29.1667ZM15.6247 33.3333C11.6038 33.3333 8.33301 36.6042 8.33301 40.625C8.33301 44.6458 11.6038 47.9167 15.6247 47.9167C19.6455 47.9167 22.9163 44.6458 22.9163 40.625C22.9163 36.6042 19.6455 33.3333 15.6247 33.3333ZM15.6247 35.4167C15.8205 35.4167 16.0122 35.4292 16.2018 35.45L10.4497 41.2021C10.4288 41.0125 10.4163 40.8208 10.4163 40.625C10.4163 37.7542 12.7518 35.4167 15.6247 35.4167ZM11.2122 43.3854L18.3872 36.2104C19.0538 36.6292 19.6205 37.1958 20.0393 37.8625L12.8643 45.0375C12.1976 44.6188 11.6309 44.0521 11.2122 43.3854ZM15.6247 45.8333C15.4288 45.8333 15.2372 45.8208 15.0476 45.8L20.7997 40.0479C20.8205 40.2375 20.833 40.4292 20.833 40.625C20.833 43.4958 18.4976 45.8333 15.6247 45.8333Z" fill="#D7522C"/>
</svg>
