<svg width="759" height="547" viewBox="0 0 759 547" fill="none" xmlns="http://www.w3.org/2000/svg">
<g clip-path="url(#clip0_123_3)">
<path d="M467.768 293.998C460.751 261.138 441.237 233.92 413.732 217.46C429.731 216.261 444.818 209.543 456.415 198.455C468.011 187.367 475.398 172.596 477.312 156.666C479.227 140.736 475.55 124.635 466.911 111.115C458.272 97.5949 445.207 87.4938 429.947 82.5377C414.687 77.5817 398.18 78.0781 383.245 83.9422C368.311 89.8063 355.876 100.674 348.065 114.689C340.254 128.704 337.552 144.996 340.42 160.782C343.288 176.568 351.549 190.869 363.791 201.24C331.911 198.382 300.08 208.956 275.094 231.422C274.344 232.157 273.906 233.154 273.873 234.204C273.839 235.254 274.213 236.277 274.916 237.058C275.619 237.839 276.596 238.318 277.644 238.396C278.692 238.473 279.729 238.143 280.539 237.473C310.101 210.872 349.985 202.207 387.16 214.28C424.335 226.354 451.516 256.8 459.807 295.696C459.955 296.394 460.285 297.042 460.763 297.573C461.241 298.104 461.85 298.5 462.529 298.721C463.209 298.944 463.937 298.981 464.636 298.827C465.691 298.601 466.614 297.966 467.201 297.061C467.788 296.155 467.992 295.054 467.768 293.998ZM350.435 129.541C354.169 118.047 361.226 107.918 370.716 100.434C380.206 92.9513 391.701 88.4503 403.749 87.5005C415.797 86.5508 427.856 89.195 438.401 95.0987C448.946 101.002 457.504 109.901 462.992 120.668C468.48 131.435 470.652 143.588 469.233 155.59C467.814 167.591 462.868 178.903 455.02 188.094C447.173 197.284 436.776 203.942 425.145 207.223C413.514 210.505 401.171 210.265 389.677 206.531C374.275 201.509 361.494 190.583 354.137 176.15C346.781 161.717 345.449 144.955 350.435 129.541Z" fill="white"/>
</g>
<g clip-path="url(#clip1_123_3)">
<path d="M417.522 296.857C394.954 289.527 372.017 293.936 355.636 308.258C350.796 287.044 334.827 270 312.258 262.67C296.066 257.432 278.457 258.831 263.294 266.559C248.131 274.288 236.653 287.714 231.376 303.894C221.602 333.989 230.335 371.596 257.232 415.614C269.684 435.843 284.056 454.824 300.15 472.295C300.656 472.826 301.287 473.223 301.985 473.45C302.684 473.676 303.427 473.726 304.15 473.594C327.437 468.913 350.22 461.999 372.181 452.947C419.81 433.133 448.973 407.834 458.747 377.739C463.984 361.546 462.586 343.938 454.857 328.775C447.129 313.612 433.702 302.134 417.522 296.857ZM304.919 464.418C292.917 451.21 219.945 367.756 239.797 306.629C244.346 292.681 254.241 281.106 267.313 274.444C280.384 267.782 295.564 266.576 309.523 271.091C331.745 278.308 346.552 296.278 348.172 317.983C348.238 318.858 348.563 319.694 349.106 320.384C349.648 321.074 350.384 321.588 351.219 321.859C352.054 322.13 352.95 322.147 353.795 321.907C354.639 321.667 355.393 321.182 355.961 320.513C370.026 303.902 392.566 298.061 414.787 305.278C428.736 309.827 440.311 319.722 446.973 332.793C453.635 345.865 454.841 361.045 450.326 375.004C430.497 436.057 322.377 460.825 304.919 464.418Z" fill="white"/>
</g>
<g clip-path="url(#clip2_123_3)">
<path d="M457.419 260.83C491.004 261.861 521.271 276.197 542.382 300.317C540.703 284.361 544.616 268.316 553.453 254.925C562.29 241.533 575.503 231.626 590.834 226.895C606.165 222.164 622.664 222.903 637.51 228.987C652.357 235.07 664.63 246.12 672.234 260.249C679.838 274.377 682.3 290.707 679.199 306.45C676.099 322.192 667.628 336.369 655.235 346.559C642.842 356.749 627.295 362.319 611.25 362.319C595.205 362.318 579.659 356.746 567.267 346.555C575.777 377.411 571.062 410.619 553.423 439.218C552.834 440.088 551.932 440.696 550.904 440.917C549.877 441.137 548.804 440.952 547.91 440.4C547.016 439.849 546.37 438.973 546.106 437.956C545.843 436.938 545.982 435.859 546.496 434.942C567.386 401.102 568.783 360.311 550.26 325.893C531.737 291.474 496.922 270.172 457.171 268.967C456.457 268.945 455.762 268.737 455.154 268.361C454.546 267.986 454.047 267.458 453.708 266.829C453.367 266.2 453.201 265.49 453.227 264.775C453.261 263.696 453.721 262.675 454.507 261.936C455.293 261.196 456.34 260.799 457.419 260.83ZM640.198 346.881C650.84 341.153 659.545 332.399 665.212 321.725C670.878 311.05 673.252 298.935 672.033 286.911C670.815 274.888 666.058 263.496 658.364 254.176C650.671 244.855 640.387 238.026 628.812 234.551C617.237 231.075 604.892 231.111 593.337 234.652C581.782 238.193 571.537 245.081 563.896 254.445C556.256 263.808 551.564 275.228 550.414 287.258C549.264 299.288 551.707 311.39 557.434 322.032C565.128 336.288 578.163 346.91 593.678 351.569C609.194 356.227 625.924 354.541 640.198 346.881Z" fill="white"/>
</g>
<g clip-path="url(#clip3_123_3)">
<path d="M303.553 208.759C275.718 189.937 242.787 183.845 211.552 191.045C222.253 179.091 228.471 163.792 229.144 147.761C229.817 131.731 224.903 115.964 215.241 103.155C205.579 90.3453 191.769 81.2884 176.171 77.5311C160.572 73.7738 144.153 75.5494 129.719 82.5544C115.284 89.5594 103.73 101.359 97.0296 115.938C90.3295 130.517 88.8994 146.969 92.9837 162.485C97.0681 178.001 106.413 191.618 119.423 201.008C132.432 210.399 148.299 214.98 164.312 213.971C139.351 234.008 123.737 263.693 121.3 297.205C121.268 298.256 121.644 299.277 122.348 300.057C123.052 300.837 124.03 301.315 125.078 301.391C126.126 301.467 127.162 301.135 127.971 300.465C128.78 299.794 129.299 298.837 129.419 297.793C132.289 258.128 155.031 224.237 190.195 207.172C225.359 190.107 266.055 193.212 298.991 215.501C299.583 215.901 300.269 216.139 300.981 216.191C301.694 216.243 302.407 216.106 303.05 215.795C303.695 215.484 304.245 215.006 304.643 214.411C305.247 213.516 305.471 212.419 305.267 211.359C305.062 210.3 304.446 209.365 303.553 208.759ZM104.987 171.547C99.7107 160.675 97.7769 148.482 99.4302 136.51C101.083 124.538 106.25 113.326 114.275 104.29C122.301 95.2549 132.826 88.8022 144.519 85.7483C156.212 82.6944 168.548 83.1765 179.967 87.1336C191.386 91.0907 201.375 98.345 208.671 107.979C215.968 117.614 220.243 129.195 220.957 141.259C221.671 153.323 218.792 165.328 212.683 175.756C206.574 186.184 197.51 194.566 186.638 199.842C172.055 206.898 155.269 207.882 139.962 202.577C124.655 197.273 112.077 186.113 104.987 171.547Z" fill="white"/>
</g>
<defs>
<clipPath id="clip0_123_3">
<rect width="260.711" height="260.711" fill="white" transform="translate(314.77 15.1642) rotate(17.9926)"/>
</clipPath>
<clipPath id="clip1_123_3">
<rect width="283.332" height="283.332" fill="white" transform="translate(245.195 189.688) rotate(17.9926)"/>
</clipPath>
<clipPath id="clip2_123_3">
<rect width="260.711" height="260.711" fill="white" transform="matrix(-0.473907 -0.880575 -0.880575 0.473907 759.108 361.529)"/>
</clipPath>
<clipPath id="clip3_123_3">
<rect width="260.711" height="260.711" fill="white" transform="translate(0 113.826) rotate(-25.8871)"/>
</clipPath>
</defs>
</svg>
